Coordinates
version=1
nRows=6
nColumns=46
inDegrees=yes

Units are S.I. units (second, meters, Newtons, ...)
Angles are in degrees.

endheader
time	pelvis_tilt	pelvis_list	pelvis_rotation	pelvis_tx	pelvis_ty	pelvis_tz	bb_angle	bb_tx	bb_ty	bb_tz	hip_flexion_r	hip_adduction_r	hip_rotation_r	knee_angle_r	knee_angle_r_beta	ankle_angle_r	subtalar_angle_r	mtp_angle_r	crank_angle_r	hip_flexion_l	hip_adduction_l	hip_rotation_l	knee_angle_l	knee_angle_l_beta	ankle_angle_l	subtalar_angle_l	mtp_angle_l	crank_angle_l	lumbar_extension	lumbar_bending	lumbar_rotation	arm_flex_r	arm_add_r	arm_rot_r	elbow_flex_r	pro_sup_r	wrist_flex_r	wrist_dev_r	arm_flex_l	arm_add_l	arm_rot_l	elbow_flex_l	pro_sup_l	wrist_flex_l	wrist_dev_l
      5.00500000	    -33.86800432	      7.56743293	     -6.55915628	      0.33680574	      1.07790870	     -0.22078768	      0.00000000	      0.50000000	      0.00000000	      0.25000000	     53.45075514	     -7.94362345	     -2.24027572	     28.67293546	      0.50043713	    -11.74770696	      6.33534745	      0.00000000	      0.00000000	     67.41902153	     -4.10294814	     -6.03035528	     95.85021764	      1.67290189	    -15.25613635	    -14.55703033	      0.00000000	      0.00000000	    -55.80984906	     -9.87795734	      4.70609521	     39.76715979	    -36.47946841	     11.07094711	    115.88567528	     54.02424118	      0.00000000	      0.00000000	     52.03190096	    -17.08830860	     21.71361172	     98.92205922	     52.54420708	      0.00000000	      0.00000000
      5.01000000	    -33.67969274	      8.13501538	     -5.22479452	      0.33765898	      1.07621506	     -0.22099438	      0.00000000	      0.50000000	      0.00000000	      0.25000000	     51.62353211	     -9.23469916	     -2.51446209	     26.51204300	      0.46272244	    -13.12267557	      6.00752815	      0.00000000	      0.00000000	     68.76623860	     -3.31652564	     -6.17392800	     97.95057073	      1.70955996	    -14.02068468	    -13.62252663	      0.00000000	      0.00000000	    -55.75066633	    -10.04906310	      4.43618208	     37.03110163	    -37.98118711	      8.82018323	    116.79228106	     54.00365018	      0.00000000	      0.00000000	     53.70985132	    -16.55091957	     24.23843464	     97.18989910	     52.51212149	      0.00000000	      0.00000000
      5.01500000	    -33.61029226	      8.67973733	     -3.86437703	      0.33833778	      1.07454870	     -0.22121218	      0.00000000	      0.50000000	      0.00000000	      0.25000000	     49.94294690	    -10.51107638	     -2.93075357	     24.49918538	      0.42759145	    -14.52005515	      5.83651989	      0.00000000	      0.00000000	     70.25471085	     -2.55637504	     -6.37276691	     99.88975802	      1.74340517	    -13.21562523	    -13.25136545	      0.00000000	      0.00000000	    -55.56416681	     -9.99043681	      2.98495107	     36.24881001	    -38.21965417	      8.89511762	    116.35579740	     53.94859120	      0.00000000	      0.00000000	     53.91672283	    -16.76692197	     24.58265804	     97.00911854	     52.50746173	      0.00000000	      0.00000000
      5.02000000	    -33.68460723	      9.15001038	     -2.47981671	      0.33877769	      1.07281664	     -0.22169313	      0.00000000	      0.50000000	      0.00000000	      0.25000000	     48.40811722	    -11.71333161	     -3.34965008	     22.57407305	      0.39399190	    -15.98053013	      5.60930084	      0.00000000	      0.00000000	     71.90815329	     -1.82657377	     -6.57613227	    101.72924601	      1.77551029	    -12.46491281	    -12.90030869	      0.00000000	      0.00000000	    -55.23847503	     -9.85556028	      1.59567649	     35.53255798	    -38.46947867	      8.95070227	    115.89916413	     53.88516411	      0.00000000	      0.00000000	     54.16401354	    -17.04647110	     24.96344694	     96.85273137	     52.50941414	      0.00000000	      0.00000000
      5.02500000	    -33.73052516	      9.41244999	     -1.18474236	      0.33920459	      1.07148725	     -0.22209412	      0.00000000	      0.50000000	      0.00000000	      0.25000000	     46.80511242	    -12.67826084	     -4.01177239	     20.69362693	      0.36117192	    -17.68224722	      5.11456839	      0.00000000	      0.00000000	     73.52100232	     -1.28547507	     -6.64961098	    103.46999943	      1.80589217	    -11.65588211	    -12.32944062	      0.00000000	      0.00000000	    -54.91679709	     -9.62732226	      0.39831142	     34.91614075	    -38.63441329	      9.09635757	    115.22570127	     53.79371811	      0.00000000	      0.00000000	     54.51103518	    -17.62381448	     25.74655757	     96.60544028	     52.53800721	      0.00000000	      0.00000000
      5.03000000	    -33.81965258	      9.62799369	      0.09580762	      0.33936913	      1.07048263	     -0.22268977	      0.00000000	      0.50000000	      0.00000000	      0.25000000	     45.27341924	    -13.58722243	     -4.70691996	     18.92496177	      0.33030289	    -19.38296161	      4.64304315	      0.00000000	      0.00000000	     75.18125494	     -0.71595097	     -6.72764418	    105.05865204	      1.83361939	    -10.88736061	    -11.94170970	      0.00000000	      0.00000000	    -54.58400148	     -9.37465461	     -0.76711534	     34.64826481	    -38.81389439	      9.41647890	    114.46838794	     53.70463854	      0.00000000	      0.00000000	     55.14687907	    -18.52804308	     27.01585662	     96.34236147	     52.61396600	      0.00000000	      0.00000000
